<svg aria-hidden="true" style="width:0;height:0;position:absolute;overflow:hidden" xmlns="http://www.w3.org/2000/svg"><defs><symbol id="close-icon" viewBox="0 0 32 32"><path d="m8.507 8.533-.746.748L14.48 16l-6.693 6.693.759.761.761.759L16 17.52l6.693 6.693.761-.759.759-.761L17.52 16l6.72-6.72-.761-.759-.759-.761L16 14.48l-3.347-3.347c-1.84-1.84-3.359-3.346-3.374-3.346s-.363.336-.772.747z"/></symbol><symbol id="favorite-icon" viewBox="0 0 32 32"><path d="m16 30.144-2.24-2.218C5.44 20.639 0 15.728 0 9.708 0 4.797 3.84.995 8.8.995c2.72 0 5.44 1.267 7.2 3.327C17.76 2.263 20.48.995 23.2.995c4.96 0 8.8 3.802 8.8 8.713 0 6.02-5.44 10.931-13.76 18.218L16 30.144z"/></symbol><symbol id="film-icon" viewBox="0 0 32 32"><path d="M4.773 1.411c-1.665.304-3.067 1.715-3.365 3.388-.105.593-.105 21.809 0 22.403.301 1.687 1.704 3.089 3.391 3.391.593.105 21.809.105 22.403 0 1.687-.301 3.089-1.704 3.391-3.391.105-.593.105-21.809 0-22.403-.301-1.687-1.704-3.089-3.391-3.391-.575-.101-21.864-.1-22.428.003zM8 6v2H3.993l.017-1.427c.016-1.375.02-1.435.141-1.667.215-.413.583-.732.976-.845.099-.028.784-.053 1.525-.056L7.999 4v2zm13.333 3.333v5.333H10.666V3.999h10.667v5.333zm5.771-5.178c.305.156.579.432.745.752.12.231.124.292.14 1.667l.017 1.427h-4.007V3.994l1.427.017c1.384.016 1.435.02 1.677.144zM8 12.667v2H4v-4h4v2zm20 0v2h-4v-4h4v2zM8 19.333v2H4v-4h4v2zm13.333 3.334V28H10.666V17.333h10.667v5.333zM28 19.333v2h-4v-4h4v2zm-20 6.67v2.004l-1.427-.017c-1.375-.016-1.436-.02-1.667-.14a1.797 1.797 0 0 1-.747-.736l-.005-.009c-.124-.243-.128-.293-.144-1.677l-.017-1.427H8v2.003zm19.989-.576c-.016 1.375-.02 1.436-.14 1.667-.17.322-.425.579-.736.747l-.009.005c-.243.124-.293.128-1.677.144L24 28.007V24h4.007l-.017 1.427z"/></symbol><symbol id="search-icon" viewBox="0 0 32 32"><path d="M13.787 2.699a12.427 12.427 0 0 0-2.994.615l.087-.026C7.788 4.34 5.32 6.528 3.925 9.343l-.031.07A10.958 10.958 0 0 0 2.7 14.679v-.012c0 1.992.341 3.493 1.195 5.253 1.731 3.573 5.069 6.011 9.067 6.621.843.131 2.568.131 3.413 0 .795-.12 1.72-.352 2.381-.597 1.091-.403 2.443-1.139 3.157-1.717l.232-.189 2.568 2.563c1.68 1.677 2.645 2.6 2.792 2.675.469.235.976.115 1.432-.339.453-.456.573-.963.339-1.432-.075-.147-.997-1.112-2.675-2.792l-2.563-2.568.189-.232c.84-1.035 1.699-2.824 2.067-4.304a10.24 10.24 0 0 0 .341-2.956v.014c0-.773-.027-1.275-.093-1.707-.805-5.293-4.859-9.365-10.115-10.157a18.242 18.242 0 0 0-2.67-.103l.03-.001zm2.037 2.717c4.187.549 7.397 3.685 8.077 7.891.037.235.069.848.069 1.36s-.032 1.125-.069 1.36c-.63 4.07-3.804 7.245-7.822 7.868l-.053.007a14.162 14.162 0 0 1-2.779-.005l.059.005a9.371 9.371 0 0 1-5.229-2.645c-1.691-1.684-2.738-4.015-2.738-6.589s1.047-4.905 2.737-6.589a9.247 9.247 0 0 1 6.578-2.735c.412 0 .818.027 1.216.079l-.047-.005z"/></symbol><symbol id="arrow-next-icon" viewBox="0 0 32 32"><path d="M15.502 5.394a2.22 2.22 0 0 0-.778.787l-.006.011a1.061 1.061 0 0 0 .004.964l-.003-.006c.082.166 1.204 1.324 3.752 3.876l3.632 3.64h-7.844c-8.414 0-8.112-.008-8.498.266-.298.212-.402.492-.4 1.068.002.686.138.954.612 1.206.178.096.486.102 8.158.114l7.972.016-3.634 3.638c-2.548 2.552-3.668 3.71-3.75 3.876-.236.47-.116.956.346 1.418s.948.58 1.418.346c.166-.084 1.618-1.494 4.93-4.792 2.582-2.572 4.764-4.72 4.848-4.776.204-.136.47-.726.47-1.046 0-.34-.264-.906-.498-1.066-.1-.068-2.28-2.216-4.848-4.776-3.154-3.146-4.738-4.69-4.89-4.766a1.173 1.173 0 0 0-1.001.005l.007-.003z"/></symbol><symbol id="arrow-prew-icon" viewBox="0 0 32 32"><path d="M15.494 5.394c-.132.068-1.99 1.88-4.88 4.764-2.568 2.56-4.748 4.708-4.848 4.776-.234.16-.498.726-.498 1.066 0 .32.266.91.47 1.046.084.056 2.266 2.204 4.848 4.776 3.312 3.298 4.764 4.708 4.93 4.792.47.234.956.116 1.418-.346s.582-.948.346-1.418c-.082-.166-1.202-1.324-3.75-3.876l-3.634-3.638 15.944-.03.214-.114c.446-.238.584-.52.584-1.192 0-.576-.106-.86-.4-1.068-.386-.274-.084-.266-8.498-.266H9.896l3.632-3.64c2.548-2.552 3.67-3.71 3.752-3.876.236-.47.116-.956-.346-1.418-.452-.454-.978-.576-1.44-.338z"/></symbol></defs></svg>