<svg aria-hidden="true" style="position: absolute; width: 0; height: 0; overflow: hidden;" version="1.1" xmlns="http://www.w3.org/2000/svg" xmlns:xlink="http://www.w3.org/1999/xlink">
<defs>

<symbol id="close-icon" viewBox="0 0 32 32">
<path d="M8.507 8.533l-0.746 0.748 6.719 6.719-6.693 6.693 0.759 0.761 0.761 0.759 6.693-6.693 6.693 6.693 0.761-0.759 0.759-0.761-6.693-6.693 6.72-6.72-0.761-0.759-0.759-0.761-6.72 6.72-3.347-3.347c-1.84-1.84-3.359-3.346-3.374-3.346s-0.363 0.336-0.772 0.747z"></path>
</symbol>

<symbol id="favorite-icon" viewBox="0 0 32 32">
<path d="M16 30.144l-2.24-2.218c-8.32-7.287-13.76-12.198-13.76-18.218 0-4.911 3.84-8.713 8.8-8.713 2.72 0 5.44 1.267 7.2 3.327 1.76-2.059 4.48-3.327 7.2-3.327 4.96 0 8.8 3.802 8.8 8.713 0 6.020-5.44 10.931-13.76 18.218l-2.24 2.218z"></path>
</symbol>

<symbol id="film-icon" viewBox="0 0 32 32">
<path d="M4.773 1.411c-1.665 0.304-3.067 1.715-3.365 3.388-0.105 0.593-0.105 21.809 0 22.403 0.301 1.687 1.704 3.089 3.391 3.391 0.593 0.105 21.809 0.105 22.403 0 1.687-0.301 3.089-1.704 3.391-3.391 0.105-0.593 0.105-21.809 0-22.403-0.301-1.687-1.704-3.089-3.391-3.391-0.575-0.101-21.864-0.1-22.428 0.003zM8 6v2h-4.007l0.017-1.427c0.016-1.375 0.020-1.435 0.141-1.667 0.215-0.413 0.583-0.732 0.976-0.845 0.099-0.028 0.784-0.053 1.525-0.056l1.347-0.005v2zM21.333 9.333v5.333h-10.667v-10.667h10.667v5.333zM27.104 4.155c0.305 0.156 0.579 0.432 0.745 0.752 0.12 0.231 0.124 0.292 0.14 1.667l0.017 1.427h-4.007v-4.007l1.427 0.017c1.384 0.016 1.435 0.020 1.677 0.144zM8 12.667v2h-4v-4h4v2zM28 12.667v2h-4v-4h4v2zM8 19.333v2h-4v-4h4v2zM21.333 22.667v5.333h-10.667v-10.667h10.667v5.333zM28 19.333v2h-4v-4h4v2zM8 26.003v2.004l-1.427-0.017c-1.375-0.016-1.436-0.020-1.667-0.14-0.322-0.17-0.579-0.425-0.747-0.736l-0.005-0.009c-0.124-0.243-0.128-0.293-0.144-1.677l-0.017-1.427h4.007v2.003zM27.989 25.427c-0.016 1.375-0.020 1.436-0.14 1.667-0.17 0.322-0.425 0.579-0.736 0.747l-0.009 0.005c-0.243 0.124-0.293 0.128-1.677 0.144l-1.427 0.017v-4.007h4.007l-0.017 1.427z"></path>
</symbol>

<symbol id="search-icon" viewBox="0 0 32 32">
<path d="M13.787 2.699c-1.068 0.088-2.056 0.297-2.994 0.615l0.087-0.026c-3.092 1.052-5.56 3.24-6.955 6.055l-0.031 0.070c-0.755 1.46-1.197 3.187-1.197 5.018 0 0.083 0.001 0.165 0.003 0.248l-0-0.012c0 1.992 0.341 3.493 1.195 5.253 1.731 3.573 5.069 6.011 9.067 6.621 0.843 0.131 2.568 0.131 3.413 0 0.795-0.12 1.72-0.352 2.381-0.597 1.091-0.403 2.443-1.139 3.157-1.717l0.232-0.189 2.568 2.563c1.68 1.677 2.645 2.6 2.792 2.675 0.469 0.235 0.976 0.115 1.432-0.339 0.453-0.456 0.573-0.963 0.339-1.432-0.075-0.147-0.997-1.112-2.675-2.792l-2.563-2.568 0.189-0.232c0.84-1.035 1.699-2.824 2.067-4.304 0.219-0.8 0.345-1.719 0.345-2.667 0-0.097-0.001-0.193-0.004-0.289l0 0.014c0-0.773-0.027-1.275-0.093-1.707-0.805-5.293-4.859-9.365-10.115-10.157-0.618-0.072-1.335-0.113-2.061-0.113-0.204 0-0.407 0.003-0.609 0.010l0.030-0.001zM15.824 5.416c4.187 0.549 7.397 3.685 8.077 7.891 0.037 0.235 0.069 0.848 0.069 1.36s-0.032 1.125-0.069 1.36c-0.63 4.070-3.804 7.245-7.822 7.868l-0.053 0.007c-0.408 0.042-0.881 0.066-1.36 0.066s-0.952-0.024-1.419-0.071l0.059 0.005c-2.061-0.32-3.857-1.27-5.229-2.645l-0-0c-1.691-1.684-2.738-4.015-2.738-6.589s1.047-4.905 2.737-6.589l0-0c1.681-1.69 4.007-2.735 6.578-2.735 0.412 0 0.818 0.027 1.216 0.079l-0.047-0.005z"></path>
</symbol>

<symbol id="arrow-next-icon" viewBox="0 0 32 32">
<path d="M15.502 5.394c-0.327 0.197-0.592 0.467-0.778 0.787l-0.006 0.011c-0.072 0.139-0.114 0.303-0.114 0.477 0 0.176 0.043 0.341 0.118 0.487l-0.003-0.006c0.082 0.166 1.204 1.324 3.752 3.876l3.632 3.64h-7.844c-8.414 0-8.112-0.008-8.498 0.266-0.298 0.212-0.402 0.492-0.4 1.068 0.002 0.686 0.138 0.954 0.612 1.206 0.178 0.096 0.486 0.102 8.158 0.114l7.972 0.016-3.634 3.638c-2.548 2.552-3.668 3.71-3.75 3.876-0.236 0.47-0.116 0.956 0.346 1.418s0.948 0.58 1.418 0.346c0.166-0.084 1.618-1.494 4.93-4.792 2.582-2.572 4.764-4.72 4.848-4.776 0.204-0.136 0.47-0.726 0.47-1.046 0-0.34-0.264-0.906-0.498-1.066-0.1-0.068-2.28-2.216-4.848-4.776-3.154-3.146-4.738-4.69-4.89-4.766-0.145-0.069-0.315-0.109-0.495-0.109-0.181 0-0.353 0.041-0.506 0.114l0.007-0.003z"></path>
</symbol>

<symbol id="arrow-prew-icon" viewBox="0 0 32 32">
<path d="M15.494 5.394c-0.132 0.068-1.99 1.88-4.88 4.764-2.568 2.56-4.748 4.708-4.848 4.776-0.234 0.16-0.498 0.726-0.498 1.066 0 0.32 0.266 0.91 0.47 1.046 0.084 0.056 2.266 2.204 4.848 4.776 3.312 3.298 4.764 4.708 4.93 4.792 0.47 0.234 0.956 0.116 1.418-0.346s0.582-0.948 0.346-1.418c-0.082-0.166-1.202-1.324-3.75-3.876l-3.634-3.638 15.944-0.030 0.214-0.114c0.446-0.238 0.584-0.52 0.584-1.192 0-0.576-0.106-0.86-0.4-1.068-0.386-0.274-0.084-0.266-8.498-0.266h-7.844l3.632-3.64c2.548-2.552 3.67-3.71 3.752-3.876 0.236-0.47 0.116-0.956-0.346-1.418-0.452-0.454-0.978-0.576-1.44-0.338z"></path>
</symbol>

</svg>
